<svg xmlns="http://www.w3.org/2000/svg" viewBox="0 0 365.92 91.05"><defs><style>.cls-1{fill:#e41d30;}</style></defs><title>duniatex_logo_landsacpe_red</title><g id="Layer_2" data-name="Layer 2"><g id="Layer_1-2" data-name="Layer 1"><path id="Path_346" data-name="Path 346" class="cls-1" d="M269.55,35h9.34V63h8.22V35h9.34V28h-26.9Zm-20.11,13c1.84-5.86,3.11-10,3.82-12.52l.2.65q.42,1.41,3.72,11.87Zm-1-20L235.93,63h8.88l2.5-8.11h11.91l2.5,8.11h8.88L258.15,28.19l-.11-.3ZM228.1,28h-8.92V63h8.92Zm-38.53,0H179.7V63h7.41V46.53c0-1.71-.12-4.47-.35-8.21L201,63H211V28h-7.45V44.61c0,1.62.09,4.24.27,7.82ZM125.72,45.38c0,7.24-3.28,10.75-10,10.75H113V34.87h3.41c6.25,0,9.29,3.44,9.29,10.51m3.51,13c3.3-3.06,5-7.52,5-13.24a16.63,16.63,0,0,0-4.78-12.64c-3.17-3-7.66-4.53-13.35-4.53H104.84V63H115c6.15,0,10.94-1.54,14.23-4.59m32.58-3.86a6.07,6.07,0,0,1-4.82,1.7,6.2,6.2,0,0,1-4.92-1.69,8.27,8.27,0,0,1-1.49-5.47V27.8h-8.17V50.21a12.37,12.37,0,0,0,3.8,9.55,15.1,15.1,0,0,0,10.59,3.48,18.16,18.16,0,0,0,7.79-1.56,11.56,11.56,0,0,0,5.12-4.54,13.17,13.17,0,0,0,1.76-6.86V27.78h-8.17V49.05a8.45,8.45,0,0,1-1.49,5.51M87.43,65.31A25.76,25.76,0,0,0,61.7,39.58V55.06A10.25,10.25,0,1,1,51.46,65.31V26.55H76.1V11.08H51.46V0H36V11.09H9.34V26.57H36V65.32A10.25,10.25,0,1,1,25.74,55.08V39.6a25.73,25.73,0,1,0,18,44.08A25.7,25.7,0,0,0,87.43,65.32M304.66,63h21V56.13H313V48.27h11.79V41.42H313V34.87h12.67V28h-21Zm49.11-17.65L365.05,28h-9.11L348.8,39.86,341.53,28h-9.31L343.4,45,331.48,63h9.06l7.89-12.48L356.31,63h9.61Z"/></g></g></svg>